<?xml version="1.0" standalone="no"?>
<!DOCTYPE svg PUBLIC "-//W3C//DTD SVG 20010904//EN"
 "http://www.w3.org/TR/2001/REC-SVG-20010904/DTD/svg10.dtd">
<svg version="1.0" xmlns="http://www.w3.org/2000/svg"
 width="498.000000pt" height="278.000000pt" viewBox="0 0 498.000000 278.000000"
 preserveAspectRatio="xMidYMid meet">

<g transform="translate(0.000000,278.000000) scale(0.100000,-0.100000)"
fill="#000000" stroke="none">
<path d="M0 1390 l0 -1390 129 0 129 0 22 67 c46 142 231 450 383 638 93 115
242 254 312 292 105 55 328 113 436 113 70 0 192 -61 175 -89 -4 -6 -43 -38
-86 -71 -80 -61 -113 -97 -104 -112 3 -4 48 -8 101 -8 l96 0 -45 -47 c-24 -27
-64 -75 -88 -108 -76 -103 -270 -327 -270 -312 0 1 27 82 59 178 63 185 91
323 72 356 -8 14 -10 5 -11 -43 0 -105 -67 -324 -215 -705 -30 -77 -55 -141
-55 -143 0 -1 8 -2 18 -2 13 0 17 6 15 21 -4 20 61 205 98 277 11 21 50 71 87
111 87 93 154 174 225 268 66 89 129 149 155 149 26 0 48 -29 55 -72 5 -32 -1
-45 -43 -106 -65 -92 -155 -274 -223 -452 -56 -147 -73 -200 -64 -200 3 0 17
35 33 78 71 202 173 427 229 509 l23 34 6 -58 c16 -144 51 -231 113 -283 35
-29 43 -31 98 -28 44 3 72 11 103 32 75 47 76 33 11 -131 -32 -81 -59 -150
-59 -152 0 -20 26 35 70 149 29 74 54 137 56 139 2 2 27 -6 56 -19 28 -12 73
-28 98 -36 l47 -14 7 -102 c3 -56 11 -107 16 -112 7 -7 8 0 5 19 -4 17 -7 65
-8 108 l-2 79 100 2 c148 3 257 51 380 167 l52 49 45 -16 c41 -13 47 -20 57
-57 11 -39 61 -327 61 -348 0 -5 67 -9 154 -9 l153 0 5 71 c3 39 10 75 16 81
18 18 47 -15 78 -88 l27 -65 45 3 45 3 27 82 c44 132 110 223 161 223 38 0 88
-29 103 -59 22 -42 20 -48 -14 -43 -29 4 -41 -10 -20 -23 26 -16 88 -114 95
-150 7 -36 9 -38 15 -15 l6 25 15 -22 c7 -13 20 -23 28 -23 9 0 7 6 -7 18 -11
9 -46 53 -78 96 l-57 79 32 -6 c83 -17 150 -74 172 -147 12 -39 29 -54 29 -26
0 8 -5 49 -11 92 -8 60 -8 83 2 101 7 13 16 23 21 23 4 0 24 -25 44 -56 l36
-56 -22 -50 c-12 -27 -19 -55 -17 -61 3 -7 8 -3 12 8 3 11 13 35 21 54 l15 35
31 -47 c34 -52 39 -55 63 -31 12 13 16 32 14 80 -1 35 1 67 4 70 4 4 18 -1 31
-10 25 -16 39 -52 51 -128 l6 -38 344 0 345 0 0 1390 0 1390 -700 0 c-552 0
-701 -3 -705 -12 -2 -7 -15 -56 -30 -108 -21 -78 -48 -153 -81 -226 -8 -18 30
-23 234 -30 105 -4 192 -10 192 -14 0 -4 -12 -17 -26 -31 -21 -19 -181 -201
-336 -381 -16 -18 -21 -18 -53 -7 -33 12 -35 16 -35 59 -1 335 -322 622 -695
622 -213 -1 -371 -71 -542 -241 -48 -48 -77 -92 -149 -228 -148 -280 -193
-375 -233 -499 l-39 -118 -47 -13 c-55 -13 -112 -56 -139 -103 -43 -73 -16
-195 56 -255 42 -35 39 -70 -7 -119 l-34 -36 -43 29 c-67 45 -215 115 -305
146 -46 16 -83 32 -83 35 0 7 99 30 218 50 77 13 112 26 112 40 0 6 -75 83
-167 173 -93 89 -215 209 -273 266 l-104 104 109 -6 c61 -3 171 -13 245 -22
169 -21 330 -12 330 18 0 6 -71 83 -158 172 -147 149 -475 506 -469 511 11 10
736 -77 851 -103 l29 -6 -7 79 c-4 43 -15 117 -25 164 l-17 85 -927 3 -927 2
0 -1390z m2939 1224 c127 -37 268 -126 350 -221 78 -91 128 -222 134 -347 l2
-58 -55 -14 c-30 -8 -102 -37 -160 -64 -58 -28 -117 -50 -131 -50 -37 0 -58
29 -132 175 -37 72 -85 153 -108 180 -81 98 -273 219 -367 232 -82 11 -139
-41 -96 -88 10 -11 70 -45 133 -76 95 -46 127 -68 188 -128 59 -59 81 -89 117
-166 25 -51 43 -95 41 -97 -1 -2 -25 13 -53 32 -27 20 -76 48 -108 63 -51 24
-72 27 -154 28 -82 0 -100 -3 -132 -23 -76 -48 -113 -126 -106 -225 8 -115 64
-189 190 -251 55 -28 91 -38 143 -43 93 -7 146 8 202 60 54 50 82 106 83 165
0 44 9 52 30 28 6 -8 27 -20 47 -27 l35 -11 -26 -27 c-74 -77 -73 -219 1 -301
38 -43 142 -100 182 -100 51 0 57 -14 28 -59 -39 -59 -86 -71 -169 -43 -72 23
-89 21 -32 -4 22 -10 66 -17 101 -18 35 -1 63 -2 63 -3 0 -7 -141 -281 -153
-297 -12 -17 -18 -17 -51 -6 -64 21 -50 4 16 -20 111 -40 186 -80 238 -127 64
-57 83 -94 83 -159 0 -101 -56 -153 -173 -162 -81 -5 -135 6 -293 65 -112 41
-179 58 -109 27 17 -8 32 -18 32 -23 0 -19 -127 -123 -185 -152 -127 -62 -227
-73 -361 -38 -147 38 -348 176 -424 292 -35 54 -108 243 -97 253 2 2 37 -7 78
-21 71 -25 280 -76 303 -74 20 1 -35 19 -138 45 -191 48 -258 76 -304 128 -41
47 -46 68 -28 124 42 124 169 171 376 139 52 -8 104 -18 115 -22 13 -5 17 -5
10 2 -37 37 -279 56 -369 29 -43 -13 -47 -13 -44 2 2 12 12 16 33 15 29 -2 29
-2 -8 16 -163 78 -181 279 -32 351 47 23 96 24 175 5 24 -6 24 -6 6 9 -11 9
-27 16 -35 16 -42 1 -42 14 0 135 64 189 274 600 349 687 49 57 174 160 229
188 47 24 156 59 218 70 66 12 234 3 302 -16z m-336 -237 c168 -84 237 -157
338 -358 73 -147 104 -183 148 -173 14 3 73 28 131 54 167 77 233 86 277 37
23 -25 36 -67 25 -83 -4 -6 -54 -16 -112 -21 -100 -9 -112 -13 -219 -66 -196
-98 -231 -83 -325 137 -32 74 -74 159 -95 188 -51 74 -153 156 -257 207 -125
61 -158 95 -116 121 33 21 110 5 205 -43z m93 -406 c193 -90 259 -217 188
-360 -64 -127 -217 -163 -377 -88 -129 60 -187 133 -195 245 -7 102 38 184
123 224 61 29 174 20 261 -21z m879 -181 c22 -23 64 -57 93 -77 28 -20 52 -39
52 -43 0 -9 -141 -65 -201 -80 l-47 -12 -41 44 c-43 46 -46 54 -32 108 5 19
12 47 15 62 5 24 11 27 54 31 26 2 52 4 57 5 6 1 29 -16 50 -38z m-175 13 c0
-18 -17 -97 -25 -120 -3 -9 -19 -5 -57 14 -29 14 -74 28 -100 31 -27 2 -48 8
-48 12 0 8 131 66 165 73 46 10 65 7 65 -10z m-76 -124 c140 -70 187 -177 128
-294 -39 -80 -104 -117 -205 -116 -110 1 -221 61 -263 143 -54 105 1 259 106
295 64 21 158 10 234 -28z m-53 -538 c6 -25 19 -58 31 -74 11 -16 17 -32 12
-37 -23 -22 -194 -73 -194 -57 0 7 87 187 112 232 l23 40 3 -30 c1 -16 7 -50
13 -74z m-1679 -181 c-3 -35 0 -57 12 -74 9 -14 16 -29 16 -34 0 -13 -197 -16
-204 -3 -4 5 13 25 36 45 37 30 141 113 144 115 1 1 -1 -21 -4 -49z m208 -456
c23 -31 77 -83 120 -117 87 -68 87 -72 16 -106 -49 -24 -96 -27 -134 -7 -71
37 -108 114 -123 259 -10 92 -9 108 6 137 l17 33 28 -72 c16 -39 47 -97 70
-127z m2270 -140 c73 -66 135 -231 116 -308 -3 -14 -13 -26 -20 -26 -8 0 -44
47 -81 105 -66 104 -94 127 -109 89 -7 -18 -26 -9 -26 12 0 8 -9 34 -20 56
-25 53 -25 63 2 88 36 33 90 27 138 -16z m-179 -36 c29 -32 51 -95 74 -218 l7
-35 -32 38 c-18 21 -53 48 -79 62 -27 13 -52 35 -59 50 -39 85 29 165 89 103z
m375 -113 c-1 -46 -16 -46 -16 0 0 19 4 35 8 35 5 0 8 -16 8 -35z m117 7 c3 7
6 3 6 -8 1 -19 -4 -21 -54 -21 -54 0 -76 9 -55 22 6 4 8 11 4 16 -3 6 4 7 19
4 14 -4 28 -2 32 5 5 7 13 4 25 -10 13 -15 19 -17 23 -8z m24 -19 c-3 -10 -5
-2 -5 17 0 19 2 27 5 18 2 -10 2 -26 0 -35z m31 12 c0 -14 -4 -25 -9 -25 -5 0
-9 14 -9 31 0 16 4 28 9 25 5 -3 9 -17 9 -31z m222 0 c0 -19 -4 -35 -8 -35 -4
0 -6 16 -4 35 2 19 6 35 8 35 2 0 4 -16 4 -35z m-170 0 c0 -14 -5 -25 -11 -25
-5 0 -8 4 -4 9 3 5 1 12 -5 16 -12 7 -4 25 11 25 5 0 9 -11 9 -25z m94 14 c7
10 46 16 46 7 0 -2 3 -12 7 -22 5 -13 3 -16 -10 -11 -10 4 -17 1 -18 -6 0 -7
-4 -3 -9 8 -6 15 -9 16 -9 4 -2 -28 -31 -18 -31 10 0 18 3 22 9 12 6 -9 11
-10 15 -2z m-34 -19 c0 -15 -6 -19 -22 -16 -33 4 -35 31 -3 34 19 1 25 -3 25
-18z m-1420 -100 c24 -46 26 -80 5 -80 -28 0 -64 82 -51 116 8 21 23 10 46
-36z"/>
<path d="M3024 2114 c4 -10 17 -43 29 -72 11 -30 26 -56 34 -59 7 -3 34 9 60
26 25 17 40 31 33 31 -7 0 -28 -11 -47 -26 -18 -14 -37 -23 -42 -20 -5 3 -19
33 -31 66 -12 33 -27 63 -33 67 -7 4 -8 0 -3 -13z"/>
<path d="M2191 1547 c-5 -85 160 -211 291 -222 l53 -5 -73 20 c-132 35 -233
110 -259 192 -6 18 -11 25 -12 15z"/>
<path d="M2936 1305 c-3 -9 -6 -53 -6 -98 0 -121 -15 -196 -44 -226 -31 -30
-83 -33 -103 -5 -19 25 -39 102 -51 194 l-11 75 4 -80 c4 -101 21 -168 51
-200 27 -29 68 -33 102 -9 42 29 53 70 63 217 9 136 8 165 -5 132z"/>
<path d="M1813 1060 c-41 -13 -73 -54 -73 -96 0 -80 95 -134 380 -214 l195
-56 -3 -40 c-4 -44 6 -57 51 -68 32 -8 35 -30 7 -66 -25 -33 -26 -76 -1 -90
33 -17 50 -11 100 35 26 25 53 45 60 45 7 0 29 -10 50 -22 33 -19 43 -20 65
-10 14 6 34 27 43 47 9 19 21 35 27 35 5 0 69 -23 140 -51 114 -45 141 -52
206 -53 167 -2 215 81 105 183 -61 56 -121 84 -291 134 -268 80 -407 126 -519
170 -210 84 -332 120 -425 123 -47 2 -99 -1 -117 -6z m177 -11 c27 -6 50 -13
50 -15 0 -12 -35 -56 -52 -65 -42 -23 -86 19 -68 65 5 14 12 26 14 26 3 0 28
-5 56 -11z m143 -38 l28 -11 -18 -31 c-23 -40 -47 -53 -72 -39 -25 13 -34 41
-25 75 7 29 24 30 87 6z m130 -46 l39 -16 -25 -32 c-27 -35 -45 -42 -83 -33
-21 6 -24 12 -24 57 0 51 0 51 28 46 15 -3 44 -13 65 -22z m-360 -10 c12 -11
13 -23 5 -57 -12 -57 -20 -63 -59 -43 -35 18 -89 64 -89 76 0 12 65 39 97 39
17 0 38 -7 46 -15z m469 -32 c24 -9 45 -17 46 -19 7 -5 -41 -63 -55 -68 -37
-14 -69 31 -57 78 7 31 11 31 66 9z m-352 -28 c16 -19 4 -84 -16 -92 -8 -3
-34 2 -58 11 -36 14 -43 20 -39 37 6 23 58 59 84 59 9 0 22 -7 29 -15z m488
-22 c23 -8 42 -17 42 -20 0 -3 -9 -18 -21 -34 -39 -55 -99 -25 -99 49 0 29 3
33 18 27 9 -4 36 -14 60 -22z m-356 -20 c23 -20 25 -81 2 -90 -14 -5 -134 25
-134 34 0 13 32 62 42 66 27 11 72 6 90 -10z m484 -19 c27 -9 51 -18 53 -20 2
-2 -9 -20 -24 -39 -22 -30 -32 -36 -58 -33 -37 4 -56 33 -49 78 5 35 11 36 78
14z m-355 -14 c14 -8 19 -21 19 -50 0 -21 -5 -42 -10 -45 -6 -4 -35 1 -66 10
-42 12 -54 20 -50 31 3 9 6 20 6 25 0 9 54 38 73 39 5 0 17 -5 28 -10z m552
-50 c55 -16 101 -31 104 -34 3 -3 -10 -21 -30 -41 -57 -57 -97 -43 -97 33 l0
44 -29 -31 c-50 -53 -99 -33 -87 35 6 28 11 34 24 29 9 -3 61 -19 115 -35z
m-425 8 c13 -13 16 -47 7 -70 -5 -12 -16 -13 -59 -5 -61 11 -64 24 -17 64 29
26 51 29 69 11z m117 -73 c0 -36 -2 -40 -25 -38 -14 1 -38 7 -55 13 l-30 11
33 30 c21 18 42 29 55 27 18 -2 22 -10 22 -43z m492 9 c24 -9 43 -20 43 -24 0
-5 -16 -22 -36 -40 -49 -43 -78 -38 -82 14 -6 70 4 77 75 50z m-359 -26 c7 -7
12 -30 12 -51 0 -33 -3 -38 -17 -32 -10 4 -38 14 -63 22 -63 22 -67 29 -29 52
38 23 79 27 97 9z m-124 -57 c77 -28 144 -55 149 -60 6 -6 3 -22 -10 -43 -20
-35 -63 -49 -86 -29 -7 5 -25 15 -40 20 -26 10 -32 7 -75 -33 -54 -49 -70 -57
-94 -44 -23 11 -23 39 1 69 10 13 20 31 23 39 8 22 -10 50 -30 50 -36 0 -55
24 -47 59 7 31 10 33 39 28 17 -3 94 -28 170 -56z m612 6 c53 -49 52 -67 -3
-67 -49 0 -73 24 -73 72 0 50 16 49 76 -5z m-369 -34 c-4 -20 -8 -37 -10 -39
-7 -8 -87 30 -87 41 0 14 28 40 50 47 8 3 23 1 34 -4 14 -8 17 -17 13 -45z
m127 -15 c18 -25 20 -46 7 -67 -8 -12 -19 -10 -70 9 -33 12 -58 27 -55 32 10
16 68 48 86 48 9 0 24 -10 32 -22z m128 -35 c22 -20 24 -71 2 -80 -20 -8 -106
19 -111 34 -6 18 43 63 68 63 12 0 31 -7 41 -17z m134 -47 c18 -14 18 -15 -9
-25 -16 -6 -45 -11 -65 -11 l-37 1 28 24 c32 28 55 31 83 11z"/>
<path d="M2180 553 c-51 -10 -68 -52 -29 -74 53 -28 131 27 93 66 -16 15 -20
16 -64 8z m60 -32 c0 -10 -7 -22 -16 -25 -25 -10 -72 -7 -79 4 -12 20 17 40
56 40 32 0 39 -4 39 -19z"/>
<path d="M2592 401 c-23 -14 -10 -46 19 -49 34 -4 65 24 48 44 -13 16 -47 18
-67 5z m55 -18 c6 -16 -36 -28 -50 -14 -9 9 -8 14 3 21 19 12 42 9 47 -7z"/>
<path d="M2637 1553 c-25 -24 12 -64 39 -42 23 19 17 49 -9 49 -13 0 -27 -3
-30 -7z"/>
<path d="M3160 1310 c0 -15 7 -20 25 -20 18 0 25 5 25 20 0 15 -7 20 -25 20
-18 0 -25 -5 -25 -20z"/>
<path d="M3100 2761 c0 -30 14 -32 27 -5 10 21 9 24 -8 24 -12 0 -19 -7 -19
-19z"/>
<path d="M775 454 c-21 -48 -136 -331 -164 -401 -11 -29 -17 -53 -13 -53 4 0
24 44 46 98 21 53 65 162 98 241 32 79 57 146 54 148 -3 3 -12 -12 -21 -33z"/>
<path d="M3645 185 c4 -11 18 -51 31 -90 33 -95 34 -98 39 -93 7 7 -51 179
-65 191 -10 10 -11 8 -5 -8z"/>
<path d="M2451 98 c-5 -13 -16 -40 -24 -61 -15 -36 -15 -37 4 -37 15 0 19 5
15 18 -4 10 0 37 8 60 15 43 12 60 -3 20z"/>
</g>
</svg>
